# xmcd
#
# Track frame offsets: 
#        150
#        18615
#        35785
#        55677
#        69981
#        88696
#        108111
#        124988
#        141986
#        160654
#        173084
#        189695
#
# Disc length: 2973 seconds
#
# Revision: 0
# Processed by: cddbd v1.5.2PL0 Copyright (c) Steve Scherf et al.
# Submitted via: ExactAudioCopy v0.95b4
#
DISCID=a30b9b0c
DTITLE=Taylor Hicks - The Distance
DYEAR=2009
DGENRE=Soul
TTITLE0=The Distance
TTITLE1=What's Right Is Right
TTITLE2=New Found Freedom
TTITLE3=Nineteen
TTITLE4=Once Upon A Lover
TTITLE5=Seven Mile Breakdown
TTITLE6=Maybe You Should
TTITLE7=Keeping It Real
TTITLE8=I Live On A Battlefield
TTITLE9=Wedding Day Blues
TTITLE10=Woman's Got To Have It
TTITLE11=Indiscriminate Act Of Kindness
EXTD=
EXTT0=
EXTT1=
EXTT2=
EXTT3=
EXTT4=
EXTT5=
EXTT6=
EXTT7=
EXTT8=
EXTT9=
EXTT10=
EXTT11=
PLAYORDER=
